<?xml version="1.0" standalone="no"?><svg xmlns="http://www.w3.org/2000/svg" viewBox="0 0 1440 320"><path fill="#353535" fill-opacity="0.5" d="M0,192L17.1,181.3C34.3,171,69,149,103,165.3C137.1,181,171,235,206,213.3C240,192,274,96,309,74.7C342.9,53,377,107,411,133.3C445.7,160,480,160,514,138.7C548.6,117,583,75,617,69.3C651.4,64,686,96,720,122.7C754.3,149,789,171,823,192C857.1,213,891,235,926,240C960,245,994,235,1029,213.3C1062.9,192,1097,160,1131,128C1165.7,96,1200,64,1234,96C1268.6,128,1303,224,1337,229.3C1371.4,235,1406,149,1423,106.7L1440,64L1440,320L1422.9,320C1405.7,320,1371,320,1337,320C1302.9,320,1269,320,1234,320C1200,320,1166,320,1131,320C1097.1,320,1063,320,1029,320C994.3,320,960,320,926,320C891.4,320,857,320,823,320C788.6,320,754,320,720,320C685.7,320,651,320,617,320C582.9,320,549,320,514,320C480,320,446,320,411,320C377.1,320,343,320,309,320C274.3,320,240,320,206,320C171.4,320,137,320,103,320C68.6,320,34,320,17,320L0,320Z"></path></svg>